<?xml version="1.0" encoding="UTF-8"?>
<!DOCTYPE svg PUBLIC "-//W3C//DTD SVG 1.1//EN" "http://www.w3.org/Graphics/SVG/1.1/DTD/svg11.dtd">
<svg xmlns="http://www.w3.org/2000/svg" version="1.1" width="286px" height="286px" style="shape-rendering:geometricPrecision; text-rendering:geometricPrecision; image-rendering:optimizeQuality; fill-rule:evenodd; clip-rule:evenodd" xmlns:xlink="http://www.w3.org/1999/xlink">
<g><path style="opacity:0.11" fill="#e9f1e6" d="M 103.5,80.5 C 102.833,80.5 102.167,80.5 101.5,80.5C 103.833,77.8333 106.167,75.1667 108.5,72.5C 119.167,62.8333 129.833,53.1667 140.5,43.5C 141.531,42.645 142.697,41.9783 144,41.5C 144.765,41.5699 145.265,41.9033 145.5,42.5C 147.9,45.9031 150.9,48.5698 154.5,50.5C 155.833,52.5 157.5,54.1667 159.5,55.5C 160.5,57.1667 161.833,58.5 163.5,59.5C 164.167,60.8333 165.167,61.8333 166.5,62.5C 168.239,65.2427 170.573,67.2427 173.5,68.5C 173.833,69.5 174.5,70.1667 175.5,70.5C 175.833,71.5 176.5,72.1667 177.5,72.5C 177.56,73.0431 177.893,73.3764 178.5,73.5C 179.823,63.3411 179.823,53.3411 178.5,43.5C 178.5,42.8333 178.167,42.5 177.5,42.5C 176.833,42.1667 176.167,41.8333 175.5,41.5C 168.466,33.4651 160.799,26.1317 152.5,19.5C 148.961,15.835 144.628,14.6683 139.5,16C 137.382,17.0491 135.716,18.5491 134.5,20.5C 132.167,22.1667 130.167,24.1667 128.5,26.5C 127.5,26.8333 126.833,27.5 126.5,28.5C 123.236,30.0941 120.569,32.4275 118.5,35.5C 116.167,37.1667 114.167,39.1667 112.5,41.5C 110.251,42.0798 108.585,43.4131 107.5,45.5C 105.167,47.1667 103.167,49.1667 101.5,51.5C 98.2358,53.0941 95.5691,55.4275 93.5,58.5C 92.1667,59.1667 91.1667,60.1667 90.5,61.5C 86.5644,63.7657 83.2311,66.7657 80.5,70.5C 78.8333,71.5 77.5,72.8333 76.5,74.5C 75.5084,74.3284 74.8417,74.6618 74.5,75.5C 73.5,76.1667 72.5,76.8333 71.5,77.5C 70.8333,77.5 70.1667,77.5 69.5,77.5C 92.3389,55.8296 115.672,34.663 139.5,14C 143.594,13.2327 147.594,13.566 151.5,15C 160.667,23.5 169.833,32 179,40.5C 180.457,52.0651 180.957,63.7318 180.5,75.5C 179.127,75.6567 177.793,75.49 176.5,75C 165.955,64.1553 155.122,53.6553 144,43.5C 130.373,55.724 116.873,68.0573 103.5,80.5 Z"/></g>
<g><path style="opacity:0.894" fill="#84be75" d="M 126.5,28.5 C 124.431,31.5725 121.764,33.9059 118.5,35.5C 120.569,32.4275 123.236,30.0941 126.5,28.5 Z"/></g>
<g><path style="opacity:1" fill="#62b64e" d="M 152.5,19.5 C 160.799,26.1317 168.466,33.4651 175.5,41.5C 172.976,41.5713 170.976,40.5713 169.5,38.5C 168.522,38.9767 167.689,39.6433 167,40.5C 164.83,38.3276 162.497,36.3276 160,34.5C 159.056,35.263 158.556,36.263 158.5,37.5C 160.399,42.0205 159.399,45.6871 155.5,48.5C 155.863,49.1835 156.196,49.8501 156.5,50.5C 155.833,50.5 155.167,50.5 154.5,50.5C 152.1,47.0969 149.1,44.4302 145.5,42.5C 145.265,41.9033 144.765,41.5699 144,41.5C 142.697,41.9783 141.531,42.645 140.5,43.5C 140.347,39.1567 142.347,36.99 146.5,37C 147.772,38.3068 148.772,39.8068 149.5,41.5C 151.552,36.9485 150.385,33.6152 146,31.5C 145.187,29.5643 144.687,27.5643 144.5,25.5C 147.249,25.7261 149.916,25.3928 152.5,24.5C 153.731,23.3493 153.731,22.1827 152.5,21C 149.037,22.2179 144.704,23.0513 139.5,23.5C 139.5,24.5 139.5,25.5 139.5,26.5C 137.833,26.5 136.167,26.5 134.5,26.5C 134.719,25.325 134.386,24.325 133.5,23.5C 132.06,24.9524 130.394,25.9524 128.5,26.5C 130.167,24.1667 132.167,22.1667 134.5,20.5C 136.467,20.2606 138.301,20.5939 140,21.5C 140,20.1667 140,18.8333 140,17.5C 141.062,16.9032 142.228,16.5698 143.5,16.5C 146.13,18.2794 149.13,19.2794 152.5,19.5 Z"/></g>
<g><path style="opacity:1" fill="#71b860" d="M 152.5,19.5 C 149.13,19.2794 146.13,18.2794 143.5,16.5C 142.228,16.5698 141.062,16.9032 140,17.5C 140,18.8333 140,20.1667 140,21.5C 138.301,20.5939 136.467,20.2606 134.5,20.5C 135.716,18.5491 137.382,17.0491 139.5,16C 144.628,14.6683 148.961,15.835 152.5,19.5 Z"/></g>
<g><path style="opacity:0.044" fill="#e6e8e9" d="M 196.5,22.5 C 203.655,21.3448 210.988,21.1782 218.5,22C 219.416,22.3742 220.25,22.8742 221,23.5C 221.333,41.8333 221.667,60.1667 222,78.5C 224.705,81.0362 227.205,83.7029 229.5,86.5C 228.833,86.5 228.167,86.5 227.5,86.5C 226.167,85.5 224.833,84.5 223.5,83.5C 222.542,82.0384 221.376,80.7051 220,79.5C 219.667,61.1667 219.333,42.8333 219,24.5C 218.617,23.944 218.117,23.6107 217.5,23.5C 210.687,22.5088 203.687,22.1755 196.5,22.5 Z"/></g>
<g><path style="opacity:0.882" fill="#85be70" d="M 112.5,41.5 C 111.415,43.5869 109.749,44.9202 107.5,45.5C 108.585,43.4131 110.251,42.0798 112.5,41.5 Z"/></g>
<g><path style="opacity:0.863" fill="#9ac58b" d="M 145.5,42.5 C 149.1,44.4302 152.1,47.0969 154.5,50.5C 150.9,48.5698 147.9,45.9031 145.5,42.5 Z"/></g>
<g><path style="opacity:1" fill="#5eb74b" d="M 140.5,43.5 C 129.833,53.1667 119.167,62.8333 108.5,72.5C 105.915,72.4323 103.582,71.9323 101.5,71C 99.3148,73.9167 97.3148,76.9167 95.5,80C 95.8333,80.3333 96.1667,80.6667 96.5,81C 95.1279,81.4017 93.7946,81.9017 92.5,82.5C 91.8333,81.1667 91.1667,79.8333 90.5,78.5C 90.0894,79.2624 89.9227,80.2624 90,81.5C 89.2753,82.0585 88.4419,82.3918 87.5,82.5C 85.6682,81.1786 83.6682,80.1786 81.5,79.5C 79.5,78.1667 77.8333,76.5 76.5,74.5C 77.5,72.8333 78.8333,71.5 80.5,70.5C 84.4356,68.2343 87.7689,65.2343 90.5,61.5C 91.1667,60.1667 92.1667,59.1667 93.5,58.5C 96.7642,56.9059 99.4309,54.5725 101.5,51.5C 103.167,49.1667 105.167,47.1667 107.5,45.5C 109.749,44.9202 111.415,43.5869 112.5,41.5C 114.167,39.1667 116.167,37.1667 118.5,35.5C 121.764,33.9059 124.431,31.5725 126.5,28.5C 126.833,27.5 127.5,26.8333 128.5,26.5C 130.394,25.9524 132.06,24.9524 133.5,23.5C 134.386,24.325 134.719,25.325 134.5,26.5C 136.167,26.5 137.833,26.5 139.5,26.5C 139.5,25.5 139.5,24.5 139.5,23.5C 144.704,23.0513 149.037,22.2179 152.5,21C 153.731,22.1827 153.731,23.3493 152.5,24.5C 149.916,25.3928 147.249,25.7261 144.5,25.5C 144.687,27.5643 145.187,29.5643 146,31.5C 150.385,33.6152 151.552,36.9485 149.5,41.5C 148.772,39.8068 147.772,38.3068 146.5,37C 142.347,36.99 140.347,39.1567 140.5,43.5 Z"/></g>
<g><path style="opacity:1" fill="#5db84d" d="M 175.5,41.5 C 176.167,41.8333 176.833,42.1667 177.5,42.5C 178.139,52.2266 177.472,61.5599 175.5,70.5C 174.5,70.1667 173.833,69.5 173.5,68.5C 171.761,65.7573 169.427,63.7573 166.5,62.5C 165.167,61.8333 164.167,60.8333 163.5,59.5C 163.167,57.1667 161.833,55.8333 159.5,55.5C 158.925,53.5887 157.925,51.922 156.5,50.5C 156.196,49.8501 155.863,49.1835 155.5,48.5C 159.399,45.6871 160.399,42.0205 158.5,37.5C 158.556,36.263 159.056,35.263 160,34.5C 162.497,36.3276 164.83,38.3276 167,40.5C 167.689,39.6433 168.522,38.9767 169.5,38.5C 170.976,40.5713 172.976,41.5713 175.5,41.5 Z"/></g>
<g><path style="opacity:0.957" fill="#7bb868" d="M 154.5,50.5 C 155.167,50.5 155.833,50.5 156.5,50.5C 157.925,51.922 158.925,53.5887 159.5,55.5C 157.5,54.1667 155.833,52.5 154.5,50.5 Z"/></g>
<g><path style="opacity:0.416" fill="#c5dac1" d="M 178.5,43.5 C 179.823,53.3411 179.823,63.3411 178.5,73.5C 177.893,73.3764 177.56,73.0431 177.5,72.5C 178.494,63.0144 178.827,53.3478 178.5,43.5 Z"/></g>
<g><path style="opacity:0.933" fill="#79bb62" d="M 101.5,51.5 C 99.4309,54.5725 96.7642,56.9059 93.5,58.5C 95.5691,55.4275 98.2358,53.0941 101.5,51.5 Z"/></g>
<g><path style="opacity:0.945" fill="#82ba6e" d="M 159.5,55.5 C 161.833,55.8333 163.167,57.1667 163.5,59.5C 161.833,58.5 160.5,57.1667 159.5,55.5 Z"/></g>
<g><path style="opacity:0.902" fill="#6fb063" d="M 177.5,42.5 C 178.167,42.5 178.5,42.8333 178.5,43.5C 178.827,53.3478 178.494,63.0144 177.5,72.5C 176.5,72.1667 175.833,71.5 175.5,70.5C 177.472,61.5599 178.139,52.2266 177.5,42.5 Z"/></g>
<g><path style="opacity:0.855" fill="#97c48d" d="M 166.5,62.5 C 169.427,63.7573 171.761,65.7573 173.5,68.5C 170.573,67.2427 168.239,65.2427 166.5,62.5 Z"/></g>
<g><path style="opacity:0.882" fill="#84be71" d="M 90.5,61.5 C 87.7689,65.2343 84.4356,68.2343 80.5,70.5C 83.2311,66.7657 86.5644,63.7657 90.5,61.5 Z"/></g>
<g><path style="opacity:1" fill="#3f5d6c" d="M 217.5,23.5 C 218.117,23.6107 218.617,23.944 219,24.5C 219.333,42.8333 219.667,61.1667 220,79.5C 221.376,80.7051 222.542,82.0384 223.5,83.5C 221.425,83.3016 219.425,83.1349 217.5,83C 216.793,85.5428 215.46,87.7095 213.5,89.5C 214.083,91.0016 214.916,92.3349 216,93.5C 217.845,91.6499 219.845,91.3166 222,92.5C 222.606,101.406 219.773,102.74 213.5,96.5C 212.817,96.8627 212.15,97.1961 211.5,97.5C 206.839,95.9331 202.506,93.5997 198.5,90.5C 197.206,89.7101 196.039,88.7101 195,87.5C 194.171,66.3293 194.337,45.3293 195.5,24.5C 202.648,23.5084 209.981,23.175 217.5,23.5 Z"/></g>
<g><path style="opacity:1" fill="#3a596c" d="M 195.5,24.5 C 202.2,24.17 208.866,24.5033 215.5,25.5C 216.04,26.7481 216.707,27.9148 217.5,29C 216.652,32.2556 215.985,35.589 215.5,39C 216.529,53.4337 216.529,67.9337 215.5,82.5C 213.483,81.8257 211.817,80.6591 210.5,79C 208.866,78.5065 207.199,78.3398 205.5,78.5C 205.795,71.7743 205.462,65.1077 204.5,58.5C 204.977,57.069 205.643,55.7357 206.5,54.5C 207.086,54.7093 207.586,55.0426 208,55.5C 210.283,59.128 211.95,63.128 213,67.5C 213.747,64.147 213.247,60.9803 211.5,58C 213.299,53.7048 213.965,49.2048 213.5,44.5C 211.5,44.5 209.5,44.5 207.5,44.5C 207.664,47.1873 207.497,49.854 207,52.5C 206.782,49.5738 206.282,46.7405 205.5,44C 203.203,43.9822 200.869,44.1489 198.5,44.5C 198.666,52.5069 198.5,60.5069 198,68.5C 196.653,53.8648 195.82,39.1981 195.5,24.5 Z"/></g>
<g><path style="opacity:0.996" fill="#4b8a58" d="M 74.5,75.5 C 74.8417,74.6618 75.5084,74.3284 76.5,74.5C 77.8333,76.5 79.5,78.1667 81.5,79.5C 82.8333,81.1667 84.1667,82.8333 85.5,84.5C 81.8971,82.2369 78.5638,79.5703 75.5,76.5C 75.5,75.8333 75.1667,75.5 74.5,75.5 Z"/></g>
<g><path style="opacity:1" fill="#62b44f" d="M 108.5,72.5 C 106.167,75.1667 103.833,77.8333 101.5,80.5C 100.833,80.5 100.5,80.8333 100.5,81.5C 97.2358,83.0941 94.5691,85.4275 92.5,88.5C 91.5,88.5 90.5,88.5 89.5,88.5C 89.1667,86.1667 87.8333,84.8333 85.5,84.5C 84.1667,82.8333 82.8333,81.1667 81.5,79.5C 83.6682,80.1786 85.6682,81.1786 87.5,82.5C 88.4419,82.3918 89.2753,82.0585 90,81.5C 89.9227,80.2624 90.0894,79.2624 90.5,78.5C 91.1667,79.8333 91.8333,81.1667 92.5,82.5C 93.7946,81.9017 95.1279,81.4017 96.5,81C 96.1667,80.6667 95.8333,80.3333 95.5,80C 97.3148,76.9167 99.3148,73.9167 101.5,71C 103.582,71.9323 105.915,72.4323 108.5,72.5 Z"/></g>
<g><path style="opacity:1" fill="#376061" d="M 75.5,76.5 C 78.5638,79.5703 81.8971,82.2369 85.5,84.5C 86.1667,85.5 86.8333,86.5 87.5,87.5C 87.427,89.0269 88.0937,90.0269 89.5,90.5C 89.1667,91.5 88.5,92.1667 87.5,92.5C 87.0825,91.7784 86.4158,91.2784 85.5,91C 86.8333,89.6667 86.8333,88.3333 85.5,87C 83.0853,87.0551 80.752,87.3884 78.5,88C 79.4303,86.8061 80.0969,85.4728 80.5,84C 78.6006,81.6108 76.9339,79.1108 75.5,76.5 Z"/></g>
<g><path style="opacity:1" fill="#3c5a6b" d="M 74.5,75.5 C 75.1667,75.5 75.5,75.8333 75.5,76.5C 76.9339,79.1108 78.6006,81.6108 80.5,84C 80.0969,85.4728 79.4303,86.8061 78.5,88C 80.752,87.3884 83.0853,87.0551 85.5,87C 86.8333,88.3333 86.8333,89.6667 85.5,91C 86.4158,91.2784 87.0825,91.7784 87.5,92.5C 81.1319,99.869 74.1319,106.536 66.5,112.5C 65.9045,109.887 65.0712,109.887 64,112.5C 63.586,112.043 63.086,111.709 62.5,111.5C 61.6955,114.555 59.6955,116.222 56.5,116.5C 54.5121,115.711 54.1787,114.545 55.5,113C 54.8921,112.13 54.0588,111.63 53,111.5C 49.7909,114.544 47.6242,118.211 46.5,122.5C 45.0878,123.806 43.4211,124.64 41.5,125C 43.4242,125.179 45.0909,125.346 46.5,125.5C 44.2933,126.635 41.9599,127.301 39.5,127.5C 39.5751,130.206 39.9084,132.873 40.5,135.5C 39.448,135.649 38.448,135.483 37.5,135C 37.273,133.865 36.9396,132.698 36.5,131.5C 27.1883,128.657 27.5216,126.657 37.5,125.5C 37.67,124.178 37.3366,123.011 36.5,122C 41.3408,118.562 43.1742,114.062 42,108.5C 41.0138,107.829 39.8471,107.829 38.5,108.5C 44.5097,102.491 50.8431,96.8246 57.5,91.5C 61.4356,89.2343 64.7689,86.2343 67.5,82.5C 68.8333,80.8333 70.1667,79.1667 71.5,77.5C 72.5,76.8333 73.5,76.1667 74.5,75.5 Z"/></g>
<g><path style="opacity:1" fill="#3d5b6c" d="M 223.5,83.5 C 224.833,84.5 226.167,85.5 227.5,86.5C 241.854,100.688 256.354,114.688 271,128.5C 272.384,140.239 267.217,145.406 255.5,144C 254.058,143.623 253.058,142.79 252.5,141.5C 252.504,136.17 249.837,133.504 244.5,133.5C 243.555,131.435 242.888,129.601 242.5,128C 240.482,127.495 238.482,126.995 236.5,126.5C 232.5,122.833 228.5,119.167 224.5,115.5C 222.173,112.18 220.34,108.514 219,104.5C 217.152,101.959 214.652,100.959 211.5,101.5C 211.5,100.167 211.5,98.8333 211.5,97.5C 212.15,97.1961 212.817,96.8627 213.5,96.5C 219.773,102.74 222.606,101.406 222,92.5C 219.845,91.3166 217.845,91.6499 216,93.5C 214.916,92.3349 214.083,91.0016 213.5,89.5C 215.46,87.7095 216.793,85.5428 217.5,83C 219.425,83.1349 221.425,83.3016 223.5,83.5 Z"/></g>
<g><path style="opacity:0.973" fill="#3e7f90" d="M 159.5,129.5 C 158.508,122.018 158.175,114.352 158.5,106.5C 156.09,105.562 153.756,105.562 151.5,106.5C 149.952,106.179 149.285,105.179 149.5,103.5C 144.489,103.334 139.489,103.501 134.5,104C 133.965,106.109 132.965,106.609 131.5,105.5C 130.502,113.807 130.169,122.14 130.5,130.5C 131.675,130.281 132.675,130.614 133.5,131.5C 132.833,131.833 132.167,132.167 131.5,132.5C 122.201,131.553 112.868,131.219 103.5,131.5C 103.611,130.883 103.944,130.383 104.5,130C 112.827,129.5 121.16,129.334 129.5,129.5C 129.5,121.167 129.5,112.833 129.5,104.5C 129.953,103.542 130.619,102.708 131.5,102C 140.602,101.058 149.602,101.391 158.5,103C 159.484,111.749 159.817,120.582 159.5,129.5 Z"/></g>
<g><path style="opacity:1" fill="#056c87" d="M 151.5,106.5 C 151.821,108.048 152.821,108.715 154.5,108.5C 154.961,115.342 154.128,122.009 152,128.5C 149.684,129.367 147.684,128.701 146,126.5C 145.873,125.223 146.373,124.057 147.5,123C 147.133,120.756 146.133,120.256 144.5,121.5C 141.124,118.824 139.457,119.824 139.5,124.5C 138.167,124.5 136.833,124.5 135.5,124.5C 135.732,128.98 135.065,133.313 133.5,137.5C 128.913,140.234 123.913,141.901 118.5,142.5C 117.167,144.167 115.833,145.833 114.5,147.5C 115.407,150.057 116.407,152.557 117.5,155C 121.102,156.757 124.768,157.924 128.5,158.5C 120.5,158.5 112.5,158.5 104.5,158.5C 103.883,158.389 103.383,158.056 103,157.5C 102.176,148.657 102.343,139.99 103.5,131.5C 112.868,131.219 122.201,131.553 131.5,132.5C 132.167,132.167 132.833,131.833 133.5,131.5C 132.675,130.614 131.675,130.281 130.5,130.5C 130.169,122.14 130.502,113.807 131.5,105.5C 132.965,106.609 133.965,106.109 134.5,104C 139.489,103.501 144.489,103.334 149.5,103.5C 149.285,105.179 149.952,106.179 151.5,106.5 Z"/></g>
<g><path style="opacity:0.007" fill="#e9eff1" d="M 185.5,159.5 C 185.5,158.833 185.5,158.167 185.5,157.5C 185.666,148.827 185.5,140.16 185,131.5C 184.5,131 184,130.5 183.5,130C 175.507,129.5 167.507,129.334 159.5,129.5C 159.817,120.582 159.484,111.749 158.5,103C 149.602,101.391 140.602,101.058 131.5,102C 130.619,102.708 129.953,103.542 129.5,104.5C 129.167,104.5 128.833,104.5 128.5,104.5C 128.137,102.089 129.137,100.589 131.5,100C 140.576,99.0867 149.576,99.42 158.5,101C 160.004,102.491 160.837,104.324 161,106.5C 161.5,113.492 161.666,120.492 161.5,127.5C 168.841,127.334 176.174,127.5 183.5,128C 184.931,128.465 186.097,129.299 187,130.5C 187.667,139.833 187.667,149.167 187,158.5C 186.617,159.056 186.117,159.389 185.5,159.5 Z"/></g>
<g><path style="opacity:1" fill="#086e88" d="M 159.5,129.5 C 167.507,129.334 175.507,129.5 183.5,130C 184,130.5 184.5,131 185,131.5C 185.5,140.16 185.666,148.827 185.5,157.5C 184.833,157.833 184.167,158.167 183.5,158.5C 175.167,158.5 166.833,158.5 158.5,158.5C 158.5,159.5 158.5,160.5 158.5,161.5C 156.228,162.723 155.061,164.723 155,167.5C 154.598,166.128 154.098,164.795 153.5,163.5C 154.873,161.51 155.873,159.343 156.5,157C 155.377,155.956 154.044,155.29 152.5,155C 153.833,154 153.833,153 152.5,152C 156.272,150.904 157.939,148.404 157.5,144.5C 156.178,144.67 155.011,144.337 154,143.5C 154.011,140.563 153.845,137.73 153.5,135C 148.762,134.481 144.095,133.648 139.5,132.5C 138.104,136.907 136.104,140.907 133.5,144.5C 131.319,144.284 129.653,145.117 128.5,147C 130.333,148.167 132.167,149.333 134,150.5C 134.667,152.5 134.667,154.5 134,156.5C 132.187,155.391 131.354,156.058 131.5,158.5C 130.5,158.5 129.5,158.5 128.5,158.5C 124.768,157.924 121.102,156.757 117.5,155C 116.407,152.557 115.407,150.057 114.5,147.5C 115.833,145.833 117.167,144.167 118.5,142.5C 123.913,141.901 128.913,140.234 133.5,137.5C 135.065,133.313 135.732,128.98 135.5,124.5C 136.833,124.5 138.167,124.5 139.5,124.5C 139.457,119.824 141.124,118.824 144.5,121.5C 146.133,120.256 147.133,120.756 147.5,123C 146.373,124.057 145.873,125.223 146,126.5C 147.684,128.701 149.684,129.367 152,128.5C 154.128,122.009 154.961,115.342 154.5,108.5C 152.821,108.715 151.821,108.048 151.5,106.5C 153.756,105.562 156.09,105.562 158.5,106.5C 158.175,114.352 158.508,122.018 159.5,129.5 Z"/></g>
<g><path style="opacity:0.184" fill="#e4e6e8" d="M 69.5,77.5 C 70.1667,77.5 70.8333,77.5 71.5,77.5C 70.1667,79.1667 68.8333,80.8333 67.5,82.5C 63.5644,84.7657 60.2311,87.7657 57.5,91.5C 50.8431,96.8246 44.5097,102.491 38.5,108.5C 34.5,111.833 30.8333,115.5 27.5,119.5C 24.2358,121.094 21.5691,123.427 19.5,126.5C 17.4672,127.898 16.4672,129.898 16.5,132.5C 16.4357,134.557 17.1024,136.223 18.5,137.5C 20.6499,143.783 24.9832,145.949 31.5,144C 43.9584,134.375 55.625,123.875 66.5,112.5C 74.1319,106.536 81.1319,99.869 87.5,92.5C 88.5,92.1667 89.1667,91.5 89.5,90.5C 90.7095,90.0679 91.7095,89.4013 92.5,88.5C 95.7642,86.9059 98.4309,84.5725 100.5,81.5C 100.5,80.8333 100.833,80.5 101.5,80.5C 102.167,80.5 102.833,80.5 103.5,80.5C 82.0312,101.133 60.3646,121.633 38.5,142C 26.5389,149.689 18.5389,146.689 14.5,133C 15.1667,131 15.8333,129 16.5,127C 33.714,109.951 51.3806,93.4506 69.5,77.5 Z"/></g>
<g><path style="opacity:0.886" fill="#627682" d="M 27.5,119.5 C 25.4309,122.573 22.7642,124.906 19.5,126.5C 21.5691,123.427 24.2358,121.094 27.5,119.5 Z"/></g>
<g><path style="opacity:1" fill="#3d5b6d" d="M 66.5,112.5 C 55.625,123.875 43.9584,134.375 31.5,144C 24.9832,145.949 20.6499,143.783 18.5,137.5C 18.3227,133.766 18.6561,130.099 19.5,126.5C 22.7642,124.906 25.4309,122.573 27.5,119.5C 30.8333,115.5 34.5,111.833 38.5,108.5C 39.8471,107.829 41.0138,107.829 42,108.5C 43.1742,114.062 41.3408,118.562 36.5,122C 37.3366,123.011 37.67,124.178 37.5,125.5C 27.5216,126.657 27.1883,128.657 36.5,131.5C 36.9396,132.698 37.273,133.865 37.5,135C 38.448,135.483 39.448,135.649 40.5,135.5C 39.9084,132.873 39.5751,130.206 39.5,127.5C 41.9599,127.301 44.2933,126.635 46.5,125.5C 45.0909,125.346 43.4242,125.179 41.5,125C 43.4211,124.64 45.0878,123.806 46.5,122.5C 47.6242,118.211 49.7909,114.544 53,111.5C 54.0588,111.63 54.8921,112.13 55.5,113C 54.1787,114.545 54.5121,115.711 56.5,116.5C 59.6955,116.222 61.6955,114.555 62.5,111.5C 63.086,111.709 63.586,112.043 64,112.5C 65.0712,109.887 65.9045,109.887 66.5,112.5 Z"/></g>
<g><path style="opacity:0.941" fill="#5d707c" d="M 67.5,82.5 C 64.7689,86.2343 61.4356,89.2343 57.5,91.5C 60.2311,87.7657 63.5644,84.7657 67.5,82.5 Z"/></g>
<g><path style="opacity:1" fill="#538165" d="M 87.5,87.5 C 88.1667,87.8333 88.8333,88.1667 89.5,88.5C 90.5,88.5 91.5,88.5 92.5,88.5C 91.7095,89.4013 90.7095,90.0679 89.5,90.5C 88.0937,90.0269 87.427,89.0269 87.5,87.5 Z"/></g>
<g><path style="opacity:0.329" fill="#bed5b5" d="M 100.5,81.5 C 98.4309,84.5725 95.7642,86.9059 92.5,88.5C 94.5691,85.4275 97.2358,83.0941 100.5,81.5 Z"/></g>
<g><path style="opacity:1" fill="#579a5f" d="M 85.5,84.5 C 87.8333,84.8333 89.1667,86.1667 89.5,88.5C 88.8333,88.1667 88.1667,87.8333 87.5,87.5C 86.8333,86.5 86.1667,85.5 85.5,84.5 Z"/></g>
<g><path style="opacity:0.082" fill="#e6e8ea" d="M 196.5,22.5 C 203.687,22.1755 210.687,22.5088 217.5,23.5C 209.981,23.175 202.648,23.5084 195.5,24.5C 194.337,45.3293 194.171,66.3293 195,87.5C 196.039,88.7101 197.206,89.7101 198.5,90.5C 207.125,98.8244 215.791,107.158 224.5,115.5C 228.5,119.167 232.5,122.833 236.5,126.5C 241.41,131.954 246.744,136.954 252.5,141.5C 253.058,142.79 254.058,143.623 255.5,144C 267.217,145.406 272.384,140.239 271,128.5C 256.354,114.688 241.854,100.688 227.5,86.5C 228.167,86.5 228.833,86.5 229.5,86.5C 243.835,99.5022 257.835,112.836 271.5,126.5C 275.617,140.56 270.283,147.06 255.5,146C 234.674,127.507 214.174,108.673 194,89.5C 193.333,67.5 193.333,45.5 194,23.5C 194.671,22.7476 195.504,22.4142 196.5,22.5 Z"/></g>
<g><path style="opacity:0.998" fill="#4c6474" d="M 198.5,90.5 C 202.506,93.5997 206.839,95.9331 211.5,97.5C 211.5,98.8333 211.5,100.167 211.5,101.5C 214.652,100.959 217.152,101.959 219,104.5C 220.34,108.514 222.173,112.18 224.5,115.5C 215.791,107.158 207.125,98.8244 198.5,90.5 Z"/></g>
<g><path style="opacity:0.213" fill="#dfe8ea" d="M 128.5,104.5 C 128.833,104.5 129.167,104.5 129.5,104.5C 129.5,112.833 129.5,121.167 129.5,129.5C 121.16,129.334 112.827,129.5 104.5,130C 103.944,130.383 103.611,130.883 103.5,131.5C 102.343,139.99 102.176,148.657 103,157.5C 103.383,158.056 103.883,158.389 104.5,158.5C 112.316,159.492 120.316,159.826 128.5,159.5C 128.5,160.167 128.5,160.833 128.5,161.5C 119.75,161.91 111.084,161.41 102.5,160C 101.874,159.25 101.374,158.416 101,157.5C 100.333,148.833 100.333,140.167 101,131.5C 101.374,130.584 101.874,129.75 102.5,129C 111.058,127.559 119.724,127.059 128.5,127.5C 128.5,119.833 128.5,112.167 128.5,104.5 Z"/></g>
<g><path style="opacity:0.969" fill="#5e6e7a" d="M 19.5,126.5 C 18.6561,130.099 18.3227,133.766 18.5,137.5C 17.1024,136.223 16.4357,134.557 16.5,132.5C 16.4672,129.898 17.4672,127.898 19.5,126.5 Z"/></g>
<g><path style="opacity:1" fill="#0b728b" d="M 158.5,161.5 C 158.5,169.167 158.5,176.833 158.5,184.5C 158.672,185.492 158.338,186.158 157.5,186.5C 157.5,181.5 157.5,176.5 157.5,171.5C 150.894,170.453 149.227,166.953 152.5,161C 150.566,157.031 147.566,155.864 143.5,157.5C 144.661,159.224 144.495,160.89 143,162.5C 141.529,160.128 140.363,160.128 139.5,162.5C 140.472,165.464 140.638,168.464 140,171.5C 138.108,172.13 136.441,173.13 135,174.5C 133.978,173.646 133.145,172.646 132.5,171.5C 132.772,169.466 133.105,167.466 133.5,165.5C 133.224,163.67 132.557,162.003 131.5,160.5C 130.502,169.141 130.169,177.808 130.5,186.5C 129.833,177.5 129.167,168.5 128.5,159.5C 120.316,159.826 112.316,159.492 104.5,158.5C 112.5,158.5 120.5,158.5 128.5,158.5C 129.5,158.5 130.5,158.5 131.5,158.5C 131.354,156.058 132.187,155.391 134,156.5C 134.667,154.5 134.667,152.5 134,150.5C 132.167,149.333 130.333,148.167 128.5,147C 129.653,145.117 131.319,144.284 133.5,144.5C 136.104,140.907 138.104,136.907 139.5,132.5C 144.095,133.648 148.762,134.481 153.5,135C 153.845,137.73 154.011,140.563 154,143.5C 155.011,144.337 156.178,144.67 157.5,144.5C 157.939,148.404 156.272,150.904 152.5,152C 153.833,153 153.833,154 152.5,155C 154.044,155.29 155.377,155.956 156.5,157C 155.873,159.343 154.873,161.51 153.5,163.5C 154.098,164.795 154.598,166.128 155,167.5C 155.061,164.723 156.228,162.723 158.5,161.5 Z"/></g>
<g><path style="opacity:0.996" fill="#4e6577" d="M 236.5,126.5 C 238.482,126.995 240.482,127.495 242.5,128C 242.888,129.601 243.555,131.435 244.5,133.5C 249.837,133.504 252.504,136.17 252.5,141.5C 246.744,136.954 241.41,131.954 236.5,126.5 Z"/></g>
<g><path style="opacity:0.165" fill="#e9f0e6" d="M 236.5,155.5 C 236.5,156.167 236.5,156.833 236.5,157.5C 236.167,157.5 235.833,157.5 235.5,157.5C 228.912,151.25 222.246,144.917 215.5,138.5C 215.5,138.167 215.5,137.833 215.5,137.5C 214.791,136.596 213.791,136.263 212.5,136.5C 212.843,134.775 213.843,134.275 215.5,135C 222.395,142.063 229.395,148.897 236.5,155.5 Z"/></g>
<g><path style="opacity:1" fill="#5fb84b" d="M 71.5,138.5 C 73.45,143.735 74.1167,149.402 73.5,155.5C 72.8333,171.005 72.1667,186.672 71.5,202.5C 70.8076,201.975 70.3076,201.308 70,200.5C 67.7474,202.189 65.9141,204.189 64.5,206.5C 62.9731,206.427 61.9731,207.094 61.5,208.5C 60.8333,208.5 60.1667,208.5 59.5,208.5C 57.9731,208.427 56.9731,209.094 56.5,210.5C 55.8333,210.5 55.1667,210.5 54.5,210.5C 52.5137,193.198 51.847,175.532 52.5,157.5C 55.7642,155.906 58.4309,153.573 60.5,150.5C 64.1667,146.5 67.8333,142.5 71.5,138.5 Z"/></g>
<g><path style="opacity:1" fill="#61b94e" d="M 215.5,138.5 C 222.246,144.917 228.912,151.25 235.5,157.5C 234.504,157.414 233.671,157.748 233,158.5C 233.082,162.848 232.082,166.848 230,170.5C 227.705,167.203 225.038,164.203 222,161.5C 221.086,157.815 220.419,158.148 220,162.5C 219.798,160.744 219.298,159.078 218.5,157.5C 218.167,157.667 217.833,157.833 217.5,158C 218.731,159.183 218.731,160.349 217.5,161.5C 216.702,159.922 216.202,158.256 216,156.5C 215.333,159.833 215.333,163.167 216,166.5C 216.5,167 217,167.5 217.5,168C 216.217,171.064 215.55,174.397 215.5,178C 215.293,182.555 215.959,186.889 217.5,191C 215.736,194.682 215.236,198.515 216,202.5C 216.995,203.066 217.828,203.733 218.5,204.5C 216.901,204.768 215.568,204.434 214.5,203.5C 214.169,181.66 214.503,159.994 215.5,138.5 Z"/></g>
<g><path style="opacity:0.898" fill="#8ac075" d="M 59.5,150.5 C 59.8333,150.5 60.1667,150.5 60.5,150.5C 58.4309,153.573 55.7642,155.906 52.5,157.5C 54.5,154.833 56.8333,152.5 59.5,150.5 Z"/></g>
<g><path style="opacity:0.769" fill="#88bb7d" d="M 215.5,137.5 C 215.5,137.833 215.5,138.167 215.5,138.5C 214.503,159.994 214.169,181.66 214.5,203.5C 214.167,203.5 213.833,203.5 213.5,203.5C 212.844,181.141 213.511,159.141 215.5,137.5 Z"/></g>
<g><path style="opacity:1" fill="#086e89" d="M 157.5,186.5 C 157.5,186.833 157.5,187.167 157.5,187.5C 148.318,187.827 139.318,187.493 130.5,186.5C 130.169,177.808 130.502,169.141 131.5,160.5C 132.557,162.003 133.224,163.67 133.5,165.5C 133.105,167.466 132.772,169.466 132.5,171.5C 133.145,172.646 133.978,173.646 135,174.5C 136.441,173.13 138.108,172.13 140,171.5C 140.638,168.464 140.472,165.464 139.5,162.5C 140.363,160.128 141.529,160.128 143,162.5C 144.495,160.89 144.661,159.224 143.5,157.5C 147.566,155.864 150.566,157.031 152.5,161C 149.227,166.953 150.894,170.453 157.5,171.5C 157.5,176.5 157.5,181.5 157.5,186.5 Z"/></g>
<g><path style="opacity:0.017" fill="#fbfbfb" d="M 236.5,155.5 C 237.222,155.918 237.722,156.584 238,157.5C 238.667,176.167 238.667,194.833 238,213.5C 236.708,214.791 235.542,214.791 234.5,213.5C 235.496,213.586 236.329,213.252 237,212.5C 237.829,194.329 237.662,176.329 236.5,158.5C 236.5,158.167 236.5,157.833 236.5,157.5C 236.5,156.833 236.5,156.167 236.5,155.5 Z"/></g>
<g><path style="opacity:0.797" fill="#57919c" d="M 183.5,158.5 C 175.5,159.167 167.5,159.833 159.5,160.5C 159.826,168.684 159.492,176.684 158.5,184.5C 158.5,176.833 158.5,169.167 158.5,161.5C 158.5,160.5 158.5,159.5 158.5,158.5C 166.833,158.5 175.167,158.5 183.5,158.5 Z"/></g>
<g><path style="opacity:0.294" fill="#d3e0e2" d="M 185.5,157.5 C 185.5,158.167 185.5,158.833 185.5,159.5C 185.158,160.338 184.492,160.672 183.5,160.5C 175.5,160.5 167.5,160.5 159.5,160.5C 167.5,159.833 175.5,159.167 183.5,158.5C 184.167,158.167 184.833,157.833 185.5,157.5 Z"/></g>
<g><path style="opacity:0.296" fill="#cbd5c9" d="M 212.5,136.5 C 213.791,136.263 214.791,136.596 215.5,137.5C 213.511,159.141 212.844,181.141 213.5,203.5C 213.167,203.5 212.833,203.5 212.5,203.5C 212.5,181.167 212.5,158.833 212.5,136.5 Z"/></g>
<g><path style="opacity:0.98" fill="#63b555" d="M 73.5,155.5 C 73.5,171.5 73.5,187.5 73.5,203.5C 70.4569,204.345 67.4569,205.345 64.5,206.5C 65.9141,204.189 67.7474,202.189 70,200.5C 70.3076,201.308 70.8076,201.975 71.5,202.5C 72.1667,186.672 72.8333,171.005 73.5,155.5 Z"/></g>
<g><path style="opacity:0.017" fill="#eef4ec" d="M 59.5,148.5 C 59.5,149.167 59.5,149.833 59.5,150.5C 56.8333,152.5 54.5,154.833 52.5,157.5C 51.5032,175.326 51.1699,193.326 51.5,211.5C 52.5676,212.434 53.901,212.768 55.5,212.5C 53.951,214.405 52.1176,214.739 50,213.5C 49.3333,194.833 49.3333,176.167 50,157.5C 52.3997,153.598 55.5664,150.598 59.5,148.5 Z"/></g>
<g><path style="opacity:1" fill="#5bb949" d="M 235.5,157.5 C 235.833,175.179 235.5,192.846 234.5,210.5C 232.929,209.691 231.262,209.357 229.5,209.5C 225.706,208.018 222.039,206.351 218.5,204.5C 217.828,203.733 216.995,203.066 216,202.5C 215.236,198.515 215.736,194.682 217.5,191C 215.959,186.889 215.293,182.555 215.5,178C 215.55,174.397 216.217,171.064 217.5,168C 217,167.5 216.5,167 216,166.5C 215.333,163.167 215.333,159.833 216,156.5C 216.202,158.256 216.702,159.922 217.5,161.5C 218.731,160.349 218.731,159.183 217.5,158C 217.833,157.833 218.167,157.667 218.5,157.5C 219.298,159.078 219.798,160.744 220,162.5C 220.419,158.148 221.086,157.815 222,161.5C 225.038,164.203 227.705,167.203 230,170.5C 232.082,166.848 233.082,162.848 233,158.5C 233.671,157.748 234.504,157.414 235.5,157.5 Z"/></g>
<g><path style="opacity:0.096" fill="#f4f8f9" d="M 159.5,160.5 C 167.5,160.5 175.5,160.5 183.5,160.5C 176.352,161.492 169.019,161.825 161.5,161.5C 161.553,169.865 161.053,178.198 160,186.5C 159.583,187.756 158.75,188.423 157.5,188.5C 157.5,188.167 157.5,187.833 157.5,187.5C 157.5,187.167 157.5,186.833 157.5,186.5C 158.338,186.158 158.672,185.492 158.5,184.5C 159.492,176.684 159.826,168.684 159.5,160.5 Z"/></g>
<g><path style="opacity:0.651" fill="#96c38e" d="M 73.5,203.5 C 73.5,187.5 73.5,171.5 73.5,155.5C 74.1167,149.402 73.45,143.735 71.5,138.5C 71.811,137.522 72.4777,136.855 73.5,136.5C 74.8285,158.996 74.8285,181.33 73.5,203.5 Z"/></g>
<g><path style="opacity:0.379" fill="#c7d6d9" d="M 128.5,159.5 C 129.167,168.5 129.833,177.5 130.5,186.5C 139.318,187.493 148.318,187.827 157.5,187.5C 157.5,187.833 157.5,188.167 157.5,188.5C 148.143,189.972 138.809,189.806 129.5,188C 128.516,179.251 128.183,170.418 128.5,161.5C 128.5,160.833 128.5,160.167 128.5,159.5 Z"/></g>
<g><path style="opacity:0.8" fill="#7eb770" d="M 52.5,157.5 C 51.847,175.532 52.5137,193.198 54.5,210.5C 53.791,211.404 52.791,211.737 51.5,211.5C 51.1699,193.326 51.5032,175.326 52.5,157.5 Z"/></g>
<g><path style="opacity:0.225" fill="#e3eddf" d="M 236.5,158.5 C 237.662,176.329 237.829,194.329 237,212.5C 236.329,213.252 235.496,213.586 234.5,213.5C 226.829,210.66 219.496,207.327 212.5,203.5C 212.833,203.5 213.167,203.5 213.5,203.5C 213.833,203.5 214.167,203.5 214.5,203.5C 215.568,204.434 216.901,204.768 218.5,204.5C 222.039,206.351 225.706,208.018 229.5,209.5C 231.438,211.163 233.772,211.829 236.5,211.5C 236.5,193.833 236.5,176.167 236.5,158.5 Z"/></g>
<g><path style="opacity:0.699" fill="#88be7b" d="M 235.5,157.5 C 235.833,157.5 236.167,157.5 236.5,157.5C 236.5,157.833 236.5,158.167 236.5,158.5C 236.5,176.167 236.5,193.833 236.5,211.5C 233.772,211.829 231.438,211.163 229.5,209.5C 231.262,209.357 232.929,209.691 234.5,210.5C 235.5,192.846 235.833,175.179 235.5,157.5 Z"/></g>
<g><path style="opacity:0.306" fill="#bcdab1" d="M 64.5,206.5 C 64.0269,207.906 63.0269,208.573 61.5,208.5C 61.9731,207.094 62.9731,206.427 64.5,206.5 Z"/></g>
<g><path style="opacity:0.051" fill="#eaefe8" d="M 55.5,212.5 C 53.901,212.768 52.5676,212.434 51.5,211.5C 52.791,211.737 53.791,211.404 54.5,210.5C 55.1667,210.5 55.8333,210.5 56.5,210.5C 58.0269,210.573 59.0269,209.906 59.5,208.5C 60.1667,208.5 60.8333,208.5 61.5,208.5C 63.0269,208.573 64.0269,207.906 64.5,206.5C 67.4569,205.345 70.4569,204.345 73.5,203.5C 74.8285,181.33 74.8285,158.996 73.5,136.5C 72.4777,136.855 71.811,137.522 71.5,138.5C 67.8333,142.5 64.1667,146.5 60.5,150.5C 60.1667,150.5 59.8333,150.5 59.5,150.5C 59.5,149.833 59.5,149.167 59.5,148.5C 63.8425,143.324 68.6759,138.657 74,134.5C 75.3012,135.098 76.1345,136.098 76.5,137.5C 76.1708,160.1 75.8375,182.766 75.5,205.5C 68.6463,207.258 61.9796,209.592 55.5,212.5 Z"/></g>
<g><path style="opacity:0.392" fill="#adcfa2" d="M 59.5,208.5 C 59.0269,209.906 58.0269,210.573 56.5,210.5C 56.9731,209.094 57.9731,208.427 59.5,208.5 Z"/></g>
<g><path style="opacity:0.041" fill="#ebeff0" d="M 126.5,211.5 C 138.66,210.34 150.993,210.173 163.5,211C 170.08,211.08 176.413,211.914 182.5,213.5C 180.5,213.5 178.5,213.5 176.5,213.5C 171.637,213.819 166.97,213.486 162.5,212.5C 150.678,211.505 138.678,211.172 126.5,211.5 Z"/></g>
<g><path style="opacity:0.925" fill="#43818f" d="M 117.5,213.5 C 110.766,215.453 103.766,216.453 96.5,216.5C 103.264,214.765 110.264,213.765 117.5,213.5 Z"/></g>
<g><path style="opacity:1" fill="#0e6982" d="M 162.5,212.5 C 166.97,213.486 171.637,213.819 176.5,213.5C 181.953,215.003 187.619,216.003 193.5,216.5C 195.515,217.924 197.848,218.59 200.5,218.5C 220.027,222.106 238.36,228.773 255.5,238.5C 255.821,240.048 256.821,240.715 258.5,240.5C 259.026,243.707 260.692,246.207 263.5,248C 259.58,246.965 255.746,245.465 252,243.5C 250.347,243.82 249.347,244.82 249,246.5C 247.644,245.62 246.144,245.286 244.5,245.5C 243.391,245.443 242.391,245.11 241.5,244.5C 240.209,243.527 240.209,242.527 241.5,241.5C 240.5,241.167 239.5,240.833 238.5,240.5C 234.837,241.668 231.17,241.668 227.5,240.5C 224.5,239.833 221.5,239.167 218.5,238.5C 216.485,237.076 214.152,236.41 211.5,236.5C 207.384,236.459 203.384,235.793 199.5,234.5C 199.389,233.883 199.056,233.383 198.5,233C 195.518,232.502 192.518,232.335 189.5,232.5C 184.807,232.46 180.141,232.127 175.5,231.5C 168.711,230.125 161.711,229.458 154.5,229.5C 126.792,228.781 99.4591,231.448 72.5,237.5C 70.1016,237.259 68.1016,237.926 66.5,239.5C 62.2098,240.425 57.8765,241.091 53.5,241.5C 48.0926,241.551 43.0926,242.884 38.5,245.5C 38.2599,240.201 36.7599,239.535 34,243.5C 32.4905,242.91 30.9905,242.244 29.5,241.5C 30.1925,240.482 30.8592,239.482 31.5,238.5C 47.3272,229.222 64.3272,222.888 82.5,219.5C 86.1629,219.048 89.8296,218.548 93.5,218C 94.4158,217.722 95.0825,217.222 95.5,216.5C 95.8333,216.5 96.1667,216.5 96.5,216.5C 103.766,216.453 110.766,215.453 117.5,213.5C 132.483,212.645 147.483,212.311 162.5,212.5 Z"/></g>
<g><path style="opacity:0.616" fill="#729aa7" d="M 193.5,216.5 C 196.152,216.41 198.485,217.076 200.5,218.5C 197.848,218.59 195.515,217.924 193.5,216.5 Z"/></g>
<g><path style="opacity:0.855" fill="#548998" d="M 95.5,216.5 C 95.0825,217.222 94.4158,217.722 93.5,218C 89.8296,218.548 86.1629,219.048 82.5,219.5C 86.5423,217.763 90.8757,216.763 95.5,216.5 Z"/></g>
<g><path style="opacity:0.012" fill="#e0e8ea" d="M 126.5,211.5 C 138.678,211.172 150.678,211.505 162.5,212.5C 147.483,212.311 132.483,212.645 117.5,213.5C 110.264,213.765 103.264,214.765 96.5,216.5C 96.1667,216.5 95.8333,216.5 95.5,216.5C 90.8757,216.763 86.5423,217.763 82.5,219.5C 64.3272,222.888 47.3272,229.222 31.5,238.5C 27.9754,239.759 24.9754,241.759 22.5,244.5C 19.5141,245.486 17.5141,247.486 16.5,250.5C 17.7828,254.978 20.1162,255.645 23.5,252.5C 26.5786,251.696 29.5786,250.696 32.5,249.5C 39.5704,246.813 46.5704,244.146 53.5,241.5C 57.8765,241.091 62.2098,240.425 66.5,239.5C 67.5,239.5 68.5,239.5 69.5,239.5C 52.7719,244.244 36.2719,249.91 20,256.5C 14.1533,254.111 13.1533,250.445 17,245.5C 35.7451,232.685 56.2451,223.518 78.5,218C 94.2525,214.031 110.252,211.864 126.5,211.5 Z"/></g>
<g><path style="opacity:0.141" fill="#e1e8ea" d="M 176.5,213.5 C 178.5,213.5 180.5,213.5 182.5,213.5C 213.68,216.559 242.346,226.559 268.5,243.5C 270.755,245.25 272.422,247.417 273.5,250C 273.192,251.459 272.525,252.626 271.5,253.5C 271.784,251.585 271.451,249.919 270.5,248.5C 266.046,244.385 261.046,241.052 255.5,238.5C 238.36,228.773 220.027,222.106 200.5,218.5C 198.485,217.076 196.152,216.41 193.5,216.5C 187.619,216.003 181.953,215.003 176.5,213.5 Z"/></g>
<g><path style="opacity:0.243" fill="#9eb8c0" d="M 154.5,229.5 C 161.711,229.458 168.711,230.125 175.5,231.5C 173.167,231.5 170.833,231.5 168.5,231.5C 166.833,231.5 165.167,231.5 163.5,231.5C 160.5,230.833 157.5,230.167 154.5,229.5 Z"/></g>
<g><path style="opacity:0.224" fill="#d3dee1" d="M 154.5,229.5 C 157.5,230.167 160.5,230.833 163.5,231.5C 132.078,229.972 101.078,232.638 70.5,239.5C 71.1667,238.833 71.8333,238.167 72.5,237.5C 99.4591,231.448 126.792,228.781 154.5,229.5 Z"/></g>
<g><path style="opacity:0.91" fill="#528b97" d="M 189.5,232.5 C 192.518,232.335 195.518,232.502 198.5,233C 199.056,233.383 199.389,233.883 199.5,234.5C 195.922,234.451 192.589,233.785 189.5,232.5 Z"/></g>
<g><path style="opacity:0.106" fill="#e3eaec" d="M 168.5,231.5 C 170.833,231.5 173.167,231.5 175.5,231.5C 180.141,232.127 184.807,232.46 189.5,232.5C 192.589,233.785 195.922,234.451 199.5,234.5C 203.384,235.793 207.384,236.459 211.5,236.5C 213.515,237.924 215.848,238.59 218.5,238.5C 221.5,239.167 224.5,239.833 227.5,240.5C 231.895,242.435 236.562,243.769 241.5,244.5C 242.391,245.11 243.391,245.443 244.5,245.5C 250.807,248.721 257.473,251.388 264.5,253.5C 266.726,254.756 269.059,254.756 271.5,253.5C 270.526,255.085 269.026,256.085 267,256.5C 235.284,243.308 202.45,234.975 168.5,231.5 Z"/></g>
<g><path style="opacity:0.671" fill="#719dab" d="M 211.5,236.5 C 214.152,236.41 216.485,237.076 218.5,238.5C 215.848,238.59 213.515,237.924 211.5,236.5 Z"/></g>
<g><path style="opacity:0.141" fill="#b9cbd0" d="M 72.5,237.5 C 71.8333,238.167 71.1667,238.833 70.5,239.5C 70.1667,239.5 69.8333,239.5 69.5,239.5C 68.5,239.5 67.5,239.5 66.5,239.5C 68.1016,237.926 70.1016,237.259 72.5,237.5 Z"/></g>
<g><path style="opacity:0.998" fill="#357a8c" d="M 227.5,240.5 C 231.17,241.668 234.837,241.668 238.5,240.5C 239.5,240.833 240.5,241.167 241.5,241.5C 240.209,242.527 240.209,243.527 241.5,244.5C 236.562,243.769 231.895,242.435 227.5,240.5 Z"/></g>
<g><path style="opacity:1" fill="#1a6b7d" d="M 31.5,238.5 C 30.8592,239.482 30.1925,240.482 29.5,241.5C 30.9905,242.244 32.4905,242.91 34,243.5C 36.7599,239.535 38.2599,240.201 38.5,245.5C 43.0926,242.884 48.0926,241.551 53.5,241.5C 46.5704,244.146 39.5704,246.813 32.5,249.5C 32.5,248.5 32.5,247.5 32.5,246.5C 29.5794,246.854 27.2461,245.854 25.5,243.5C 24.5832,244.127 23.5832,244.461 22.5,244.5C 24.9754,241.759 27.9754,239.759 31.5,238.5 Z"/></g>
<g><path style="opacity:1" fill="#106782" d="M 32.5,249.5 C 29.5786,250.696 26.5786,251.696 23.5,252.5C 21.8333,252.5 20.1667,252.5 18.5,252.5C 19.1256,249.505 20.4589,246.839 22.5,244.5C 23.5832,244.461 24.5832,244.127 25.5,243.5C 27.2461,245.854 29.5794,246.854 32.5,246.5C 32.5,247.5 32.5,248.5 32.5,249.5 Z"/></g>
<g><path style="opacity:0.996" fill="#3e7b8b" d="M 22.5,244.5 C 20.4589,246.839 19.1256,249.505 18.5,252.5C 20.1667,252.5 21.8333,252.5 23.5,252.5C 20.1162,255.645 17.7828,254.978 16.5,250.5C 17.5141,247.486 19.5141,245.486 22.5,244.5 Z"/></g>
<g><path style="opacity:0.998" fill="#227085" d="M 255.5,238.5 C 261.046,241.052 266.046,244.385 270.5,248.5C 270.938,252.908 268.938,254.575 264.5,253.5C 257.473,251.388 250.807,248.721 244.5,245.5C 246.144,245.286 247.644,245.62 249,246.5C 249.347,244.82 250.347,243.82 252,243.5C 255.746,245.465 259.58,246.965 263.5,248C 260.692,246.207 259.026,243.707 258.5,240.5C 256.821,240.715 255.821,240.048 255.5,238.5 Z"/></g>
<g><path style="opacity:0.141" fill="#abc1c6" d="M 270.5,248.5 C 271.451,249.919 271.784,251.585 271.5,253.5C 269.059,254.756 266.726,254.756 264.5,253.5C 268.938,254.575 270.938,252.908 270.5,248.5 Z"/></g>
<g><path style="opacity:0.051" fill="#f5f5f6" d="M 235.5,265.5 C 236.172,264.733 237.005,264.066 238,263.5C 238.688,262.668 238.521,262.002 237.5,261.5C 234.308,260.134 230.974,259.301 227.5,259C 199.38,256.966 171.214,256.132 143,256.5C 114.786,256.132 86.6196,256.966 58.5,259C 55.9471,259.761 53.4471,260.594 51,261.5C 50.7003,263.066 51.2003,264.399 52.5,265.5C 48.65,265.299 47.65,263.466 49.5,260C 53.3879,258.622 57.3879,257.622 61.5,257C 88.7863,254.963 116.12,254.13 143.5,254.5C 171.545,254.141 199.545,254.975 227.5,257C 231.723,257.64 235.723,258.807 239.5,260.5C 240.558,263.796 239.225,265.463 235.5,265.5 Z"/></g>
<g><path style="opacity:0.98" fill="#d7dfe3" d="M 235.5,265.5 C 235.167,265.5 234.833,265.5 234.5,265.5C 174.176,270.824 113.842,270.824 53.5,265.5C 53.1667,265.5 52.8333,265.5 52.5,265.5C 51.2003,264.399 50.7003,263.066 51,261.5C 53.4471,260.594 55.9471,259.761 58.5,259C 86.6196,256.966 114.786,256.132 143,256.5C 171.214,256.132 199.38,256.966 227.5,259C 230.974,259.301 234.308,260.134 237.5,261.5C 238.521,262.002 238.688,262.668 238,263.5C 237.005,264.066 236.172,264.733 235.5,265.5 Z"/></g>
<g><path style="opacity:0.022" fill="#f7f7f8" d="M 53.5,265.5 C 113.842,270.824 174.176,270.824 234.5,265.5C 227.734,267.226 220.734,268.393 213.5,269C 167.834,272.323 122.167,272.323 76.5,269C 68.5854,268.483 60.9187,267.316 53.5,265.5 Z"/></g>
</svg>
